<svg width="24" height="28" viewBox="0 0 24 28" fill="none" xmlns="http://www.w3.org/2000/svg">
<path d="M8.56337 14.3225C1.27617 10.9026 -0.564337 7.30347 0.138946 5.06337C0.707557 3.28622 2.75755 2.43498 5.37616 2.91287L5.032 4.82442C3.46083 4.54068 2.23383 4.88416 1.99441 5.66073C1.60536 6.87039 3.26631 9.70785 9.38636 12.5752L8.56337 14.3225Z" fill="#F7A491"/>
<path d="M15.4316 14.3226L14.6086 12.5604C20.7287 9.69303 22.3896 6.85557 22.0006 5.64591C21.7462 4.86934 20.5342 4.54079 18.963 4.80961L18.6189 2.89805C21.2375 2.4351 23.2874 3.28633 23.8561 5.04855C24.5743 7.30359 22.7338 10.9027 15.4316 14.3226Z" fill="#F7A491"/>
<path d="M12.9028 11.8435H11.1072V21.8792H12.9028V11.8435Z" fill="#F7A491"/>
<path d="M2.39844 0.672852L7.12689 13.4862C7.87506 15.5173 9.82031 16.8763 11.99 16.8763C14.1597 16.8763 16.105 15.5322 16.8531 13.4862L21.5816 0.672852H2.39844Z" fill="#F7A491"/>
<path d="M13.0525 21.8792H10.9426C9.02732 21.8792 7.48608 23.4174 7.48608 25.329H16.509C16.509 23.4174 14.9678 21.8792 13.0525 21.8792Z" fill="#F7A491"/>
<path d="M17.0254 27.103V25.3109L6.96995 25.3109V27.103H17.0254Z" fill="#FF7C7C"/>
<path d="M12.0048 2.74872L13.0822 6.06407H16.5687L13.7406 8.11004L14.8329 11.4254L12.0048 9.37943L9.17675 11.4254L10.2541 8.11004L7.42603 6.06407H10.9275L12.0048 2.74872Z" fill="#FFFBFA"/>
</svg>
